<svg xmlns="http://www.w3.org/2000/svg" xmlns:xlink="http://www.w3.org/1999/xlink" width="500" zoomAndPan="magnify" viewBox="0 0 375 374.999991" height="500" preserveAspectRatio="xMidYMid meet" version="1.0"><defs><g/><clipPath id="7545885a32"><path d="M 187.5 0 C 83.945312 0 0 83.945312 0 187.5 C 0 291.054688 83.945312 375 187.5 375 C 291.054688 375 375 291.054688 375 187.5 C 375 83.945312 291.054688 0 187.5 0 " clip-rule="nonzero"/></clipPath></defs><g clip-path="url(#7545885a32)"><rect x="-37.5" width="450" fill="#011826" y="-37.499999" height="449.999989" fill-opacity="1"/></g><g fill="#c2c0a6" fill-opacity="1"><g transform="translate(50.330413, 276.398049)"><g><path d="M 177.25 3.09375 C 169.632812 2.882812 162.273438 0.722656 155.171875 -3.390625 C 148.066406 -7.515625 142.457031 -14.722656 138.34375 -25.015625 L 126.921875 -52.796875 L 107.46875 -52.796875 C 106.4375 -52.796875 105.921875 -53.414062 105.921875 -54.65625 C 105.921875 -55.894531 106.4375 -56.515625 107.46875 -56.515625 L 128.453125 -56.515625 C 129.078125 -56.515625 129.59375 -56.101562 130 -55.28125 L 141.734375 -26.25 C 145.441406 -16.988281 150.535156 -10.453125 157.015625 -6.640625 C 163.503906 -2.828125 170.25 -0.820312 177.25 -0.625 C 184.457031 -0.820312 191.507812 -2.101562 198.40625 -4.46875 C 205.300781 -6.84375 211.0625 -10.601562 215.6875 -15.75 C 220.320312 -20.894531 222.742188 -27.484375 222.953125 -35.515625 C 223.160156 -41.691406 222.488281 -47.195312 220.9375 -52.03125 C 219.394531 -56.863281 217.90625 -61.03125 216.46875 -64.53125 L 161.1875 -206.890625 C 157.488281 -216.566406 151.984375 -223.976562 144.671875 -229.125 C 137.359375 -234.269531 128.660156 -236.945312 118.578125 -237.15625 C 107.460938 -237.15625 98.300781 -234.53125 91.09375 -229.28125 C 83.882812 -224.03125 78.328125 -216.566406 74.421875 -206.890625 L 13.890625 -52.1875 C 11.421875 -45.800781 10.703125 -39.414062 11.734375 -33.03125 C 12.765625 -26.65625 15.234375 -20.945312 19.140625 -15.90625 C 23.054688 -10.863281 28.101562 -7.207031 34.28125 -4.9375 L 44.15625 -1.234375 C 45.394531 -0.828125 45.804688 -0.00390625 45.390625 1.234375 C 44.984375 2.265625 44.054688 2.570312 42.609375 2.15625 L 32.734375 -1.546875 C 25.941406 -4.222656 20.429688 -8.335938 16.203125 -13.890625 C 11.984375 -19.453125 9.304688 -25.734375 8.171875 -32.734375 C 7.046875 -39.734375 7.820312 -46.628906 10.5 -53.421875 L 71.015625 -208.125 C 75.140625 -218.625 81.164062 -226.703125 89.09375 -232.359375 C 97.019531 -238.023438 106.847656 -240.859375 118.578125 -240.859375 C 129.285156 -240.648438 138.648438 -237.765625 146.671875 -232.203125 C 154.703125 -226.648438 160.675781 -218.625 164.59375 -208.125 L 219.859375 -65.78125 C 221.304688 -62.28125 222.851562 -57.953125 224.5 -52.796875 C 226.144531 -47.648438 226.863281 -41.890625 226.65625 -35.515625 C 226.445312 -26.660156 223.820312 -19.347656 218.78125 -13.578125 C 213.738281 -7.816406 207.457031 -3.597656 199.9375 -0.921875 C 192.425781 1.753906 184.863281 3.09375 177.25 3.09375 Z M 177.25 3.09375 "/></g></g></g><g fill="#275950" fill-opacity="1"><g transform="translate(132.207929, 336.644459)"><g><path d="M 98.859375 0 C 90.859375 0 84.066406 -2.945312 78.484375 -8.84375 C 72.910156 -14.738281 70.125 -21.898438 70.125 -30.328125 L 70.125 -156.03125 L 47.0625 -156.03125 C 35.6875 -156.03125 26.472656 -159.03125 19.421875 -165.03125 C 12.367188 -171.03125 8.84375 -179.710938 8.84375 -191.078125 L 8.84375 -208.453125 C 8.84375 -220.242188 12.367188 -229.398438 19.421875 -235.921875 C 26.472656 -242.453125 35.6875 -245.71875 47.0625 -245.71875 L 168.96875 -245.71875 C 180.757812 -245.71875 190.128906 -242.398438 197.078125 -235.765625 C 204.035156 -229.140625 207.515625 -220.035156 207.515625 -208.453125 L 207.515625 -191.078125 C 207.515625 -179.710938 204.035156 -171.03125 197.078125 -165.03125 C 190.128906 -159.03125 180.757812 -156.03125 168.96875 -156.03125 L 150.65625 -156.03125 C 149.394531 -156.03125 148.765625 -156.660156 148.765625 -157.921875 C 148.765625 -159.179688 149.394531 -159.8125 150.65625 -159.8125 L 168.96875 -159.8125 C 179.5 -159.8125 187.921875 -162.441406 194.234375 -167.703125 C 200.554688 -172.972656 203.71875 -180.765625 203.71875 -191.078125 L 203.71875 -208.453125 C 203.71875 -218.984375 200.554688 -227.195312 194.234375 -233.09375 C 187.921875 -238.988281 179.5 -241.9375 168.96875 -241.9375 L 47.0625 -241.9375 C 36.738281 -241.9375 28.421875 -238.988281 22.109375 -233.09375 C 15.796875 -227.195312 12.640625 -218.984375 12.640625 -208.453125 L 12.640625 -191.078125 C 12.640625 -180.765625 15.796875 -172.972656 22.109375 -167.703125 C 28.421875 -162.441406 36.738281 -159.8125 47.0625 -159.8125 L 72.015625 -159.8125 C 73.273438 -159.8125 73.90625 -159.179688 73.90625 -157.921875 L 73.90625 -30.328125 C 73.90625 -22.742188 76.328125 -16.425781 81.171875 -11.375 C 86.015625 -6.320312 91.910156 -3.796875 98.859375 -3.796875 L 126.015625 -3.796875 C 133.179688 -3.796875 139.1875 -6.320312 144.03125 -11.375 C 148.875 -16.425781 151.296875 -22.742188 151.296875 -30.328125 C 151.296875 -31.585938 151.925781 -32.21875 153.1875 -32.21875 C 154.445312 -32.21875 155.078125 -31.585938 155.078125 -30.328125 C 155.078125 -21.898438 152.335938 -14.738281 146.859375 -8.84375 C 141.390625 -2.945312 134.441406 0 126.015625 0 Z M 98.859375 0 "/></g></g></g></svg>